/* XPM */
static char *coin[] = {
/* columns rows colors chars-per-pixel */
"51 55 4 1 ",
"  c #C84C0C",
". c #FC9838",
"X c #008088",
"o c None",
/* pixels */
"oooooooooo.....................XXXXXXXXXXoooooooooo",
"oooooooooo.....................XXXXXXXXXXoooooooooo",
"oooooooooo.....................XXXXXXXXXXoooooooooo",
"oooooooooo.....................XXXXXXXXXXoooooooooo",
"oooooooooo.....................XXXXXXXXXXoooooooooo",
"ooooo...........          ..........XXXXXXXXXXooooo",
"ooooo...........          ..........XXXXXXXXXXooooo",
"ooooo...........          ..........XXXXXXXXXXooooo",
"ooooo...........          ..........XXXXXXXXXXooooo",
"ooooo...........          ..........XXXXXXXXXXooooo",
"...........     ..........XXXXX..........XXXXXXXXXX",
"...........     ..........XXXXX..........XXXXXXXXXX",
"...........     ..........XXXXX..........XXXXXXXXXX",
"...........     ..........XXXXX..........XXXXXXXXXX",
"...........     ..........XXXXX..........XXXXXXXXXX",
"...........     ..........XXXXX..........XXXXXXXXXX",
"...........     ..........XXXXX..........XXXXXXXXXX",
"...........     ..........XXXXX..........XXXXXXXXXX",
"...........     ..........XXXXX..........XXXXXXXXXX",
"...........     ..........XXXXX..........XXXXXXXXXX",
"...........     ..........XXXXX..........XXXXXXXXXX",
"...........     ..........XXXXX..........XXXXXXXXXX",
"...........     ..........XXXXX..........XXXXXXXXXX",
"...........     ..........XXXXX..........XXXXXXXXXX",
"...........     ..........XXXXX..........XXXXXXXXXX",
"...........     ..........XXXXX..........XXXXXXXXXX",
"...........     ..........XXXXX..........XXXXXXXXXX",
"...........     ..........XXXXX..........XXXXXXXXXX",
"...........     ..........XXXXX..........XXXXXXXXXX",
"...........     ..........XXXXX..........XXXXXXXXXX",
"...........     ..........XXXXX..........XXXXXXXXXX",
"...........     ..........XXXXX..........XXXXXXXXXX",
"...........     ..........XXXXX..........XXXXXXXXXX",
"...........     ..........XXXXX..........XXXXXXXXXX",
"...........     ..........XXXXX..........XXXXXXXXXX",
"...........     ..........XXXXX..........XXXXXXXXXX",
"...........     ..........XXXXX..........XXXXXXXXXX",
"...........     ..........XXXXX..........XXXXXXXXXX",
"...........     ..........XXXXX..........XXXXXXXXXX",
"...........     ..........XXXXX..........XXXXXXXXXX",
"...........     ..........XXXXX..........XXXXXXXXXX",
"...........     ..........XXXXX..........XXXXXXXXXX",
"...........     ..........XXXXX..........XXXXXXXXXX",
"...........     ..........XXXXX..........XXXXXXXXXX",
"...........     ..........XXXXX..........XXXXXXXXXX",
"ooooo...........XXXXXXXXXX..........XXXXXXXXXXooooo",
"ooooo...........XXXXXXXXXX..........XXXXXXXXXXooooo",
"ooooo...........XXXXXXXXXX..........XXXXXXXXXXooooo",
"ooooo...........XXXXXXXXXX..........XXXXXXXXXXooooo",
"ooooo...........XXXXXXXXXX..........XXXXXXXXXXooooo",
"oooooooooo.....................XXXXXXXXXXoooooooooo",
"oooooooooo.....................XXXXXXXXXXoooooooooo",
"oooooooooo.....................XXXXXXXXXXoooooooooo",
"oooooooooo.....................XXXXXXXXXXoooooooooo",
"oooooooooo.....................XXXXXXXXXXoooooooooo"
};
