/* XPM */
static char *a_coin[] = {
/* columns rows colors chars-per-pixel */
"64 64 130 2 ",
"   c #C74A0B",
".  c #C84C0C",
"X  c #CC520F",
"o  c #CD5310",
"O  c #D35C15",
"+  c #D66218",
"@  c #D8641A",
"#  c #DD6A1D",
"$  c #DE6E20",
"%  c #C07A36",
"&  c #CD7D34",
"*  c #E06F20",
"=  c #E57725",
"-  c #E97B27",
";  c #EA7E29",
":  c #1D837F",
">  c #21837E",
",  c #2D847A",
"<  c #358577",
"1  c #3E8675",
"2  c #368578",
"3  c #53876F",
"4  c #56886D",
"5  c #5D896B",
"6  c #408674",
"7  c #4A8771",
"8  c #508770",
"9  c #6B8A66",
"0  c #628969",
"q  c #738B63",
"w  c #798B62",
"e  c #ED832C",
"r  c #F0862E",
"t  c #F2892F",
"y  c #F38B31",
"u  c #E4973F",
"i  c #ED973C",
"p  c #EC983C",
"a  c #F69235",
"s  c #FB9637",
"d  c #FE9837",
"f  c #F4973B",
"g  c #FB9738",
"h  c #F4993A",
"j  c #FC9838",
"k  c #888557",
"l  c #8F8C59",
"z  c #9C8E56",
"x  c #948E59",
"c  c #968F58",
"v  c #968E59",
"b  c #928E5A",
"n  c #988E58",
"m  c #998F58",
"M  c #999058",
"N  c #BD924C",
"B  c #AF9150",
"V  c #C79347",
"C  c #CB9447",
"Z  c #C69249",
"A  c #C79349",
"S  c #C4934A",
"D  c #C89348",
"F  c #C89448",
"G  c #C89448",
"H  c #D39444",
"J  c #D39544",
"K  c #D39445",
"L  c #D49444",
"P  c #D49544",
"I  c #D49445",
"U  c #D49544",
"Y  c #DD9541",
"T  c #DE9541",
"R  c #DF9541",
"E  c #DF9542",
"W  c #D89444",
"Q  c #E09541",
"!  c #E19640",
"~  c #E39640",
"^  c #E49640",
"/  c #007F89",
"(  c #017F89",
")  c #027F89",
"_  c #037F89",
"`  c #007F8A",
"'  c #007F8B",
"]  c #047F88",
"[  c #057F8A",
"{  c #057F8B",
"}  c #007E8C",
"|  c #017F8A",
" . c #028087",
".. c #038087",
"X. c #058087",
"o. c #038087",
"O. c #098186",
"+. c #098087",
"@. c #098187",
"#. c #0D8184",
"$. c #0C8185",
"%. c #0D8185",
"&. c #0F8184",
"*. c #0F8185",
"=. c #0C8086",
"-. c #0D8086",
";. c #0C8087",
":. c #0D8087",
">. c #0C8086",
",. c #018088",
"<. c #008089",
"1. c #018089",
"2. c #028088",
"3. c #038088",
"4. c #00808A",
"5. c #048088",
"6. c #058088",
"7. c #058089",
"8. c #068088",
"9. c #05808A",
"0. c #028088",
"q. c #168183",
"w. c #178183",
"e. c #168282",
"r. c #178282",
"t. c #108184",
"y. c #138283",
"u. c #1A8281",
"i. c None",
"p. c black",
/* pixels */
"i.i.i.i.i.i.i.i.i.i.i.i.i.j j j j j j j j d j j s h g g j j j j j j j j d g Z r._ _ _ _ _ ..( ( ......i.i.i.i.i.i.i.i.i.i.i.i.i.",
"i.i.i.i.i.i.i.i.i.i.i.i.i.j j j g j j j j g j j j j j j j j j j j j j j j g Z > _ _ _ _ ..( ( ....(  .i.i.i.i.i.i.i.i.i.i.i.i.i.",
"i.i.i.i.i.i.i.i.i.i.i.i.i.j j j j j j j j g j j j j j j j g j j j d j j j j A : _ ( _ _ ( _ _ .. .`  .i.i.i.i.i.i.i.i.i.i.i.i.i.",
"i.i.i.i.i.i.i.i.i.i.i.i.i.j j j j j j j j j j j j j j j g g j j j j j j j g A : _ _ _ _ ( ....( `  . .i.i.i.i.i.i.i.i.i.i.i.i.i.",
"i.i.i.i.i.i.i.i.i.i.i.i.i.j j j j j j j s d d s d s j d s s d j d j j j g j G : ` ] ] ` ] ` ` ` X. . .i.i.i.i.i.i.i.i.i.i.i.i.i.",
"i.i.i.i.i.i.i.i.i.i.i.i.j j j j j j j s t t r r r t r r r e r y a j j g g j J 4 1 1 6 6 < r.` ` ` ` _ _ i.i.i.i.i.i.i.i.i.i.i.i.",
"i.i.i.i.i.i.i.j j j d j j j j j j j j t @ . X X X X X X X X . . * s j j j j h p i p i h F 8 } <. . .X. .<. .<. .<.i.i.i.i.i.i.i.",
"i.i.i.i.i.i.i.j j j j j j j j j j j d t +   .       . . . . . . # s j j j j j j d d j j P 4 } <. .` ` _  .<. .<.<.i.i.i.i.i.i.i.",
"i.i.i.i.i.i.i.j j j j d j j j j j j j y @ .   . . . . . . . . . # s g g j j j g g j j d J 4 ` ` ` ` `  . . . .<.<.i.i.i.i.i.i.i.",
"i.i.i.i.i.i.i.j j j j j j j j j j j ^ a O . .   .   .   . . . . # s j j j j j g j j j d H 4 } <.` `  .<. . .<. .X.i.i.i.i.i.i.i.",
"i.i.i.i.i.i.j j j j j j j j d d j j j r @   . . .       .     . $ a g g j h g j g j j d P 5 X.X.] X.X.7.<. . . .<.<.i.i.i.i.i.i.",
"i.i.i.i.i.j j j j j j j j y ; = - - ; = * # # # # # # # # # # # % z M M n M B f j g d d u c 5 0 0 0 5 , X.<.<. .X.<.<.i.i.i.i.i.",
"j j j j j j j j j j j j j e o . . . . O r j j s s s s s j s s s l #.@.+.+.-.1 R d d g d j j h h g h i q -.<. .<.<. . .<.<.<.X.<.",
"j j j j j j j j j j j j j r o . . .   O ; j j s j s s s j j s j c e.<.<.` 7.< R s j j g g g j j j j f q -.<.<. . .<. . .<.X. . .",
"j j j j j j j j j j j j j e o . .     O r j j j j j j j j j j d c t. .<.<.7.< R s d d j g j j j g d f q -.<. . . . . . .<. .<. .",
"j j j j j j j j j j j j j e o . . .   O r j j j j j j j j j j j b #.<.<.` 7.< R d g g g j g j j g g f q -.<. . .<. . .<. . . .<.",
"j j j j j j j j j j j j j r o . . .   O ; j j j j j j j j j j d n &.<.` ` 7.< R j g g d g d j j j g f q -.<.<.<.<.X. .<.<. .<. .",
"j d j j j j d j j j j j j ; o . .     O ; ^ j j j j j j j j j j b &.` ` ` <.< R j d d h j j j g g s f q -.<.<.<.X.<. . . .<. .<.",
"j j j j j j j j j j j j j r o . . .   O r j j j j s j j j j j j b -.<._ ` 7.< R d g j j j j j d g j f q -. . .<.<. . . .<. . .<.",
"j j j j j j j j j j j j j ; o . . .   O r j j j j j j j j s j d x &.<. . .7.< R g d g d j j j g g j f q -.<. . . . . . . . .X. .",
"j s j j j j j j j j j j j r o   . .   O r j j j j j j j j j j j b &.<.<.<.X.< R j j j j h d g d j j h q #._  .<. . . . . . . .<.",
"j j j j j j j j j j j j j ; o   . .   O e j j j j s j j j s j j b &.<. . .X.< u j j j j j j j j j j h q #._ <. . . .<.<. .<.<. .",
"j j j j j j j j j j j j j r o   . .   O t j j j j j j j j j j d b &.<.`  .X.< Y j j d d g j j j j j f q @.`  . .<. . .<. . .<. .",
"j j j j j j d j j j j j j ; o . . .   O t ^ j j j j j j j j j j b &. . . . .< Y g d d h j j j j j d h q @.`  . . .<. . .<.<. . .",
"j j j j j j j j j j j j j r o . .     O e j j j j j j j j j j d x &.<.`  .] < R g d d h d g j g j j f q -. .<. . . . .<. . .<. .",
"j j j j j j j j j j j j j ; o   . .   O r j j j j j j j j j j d b &.<.`  .] < R d d j j d d d j j j f q -.<. .X. .<.<. . . . .<.",
"j j j s s j j j j j j j j r o . . .   O e j j j j j j j j j j d x &. . ._ ] < R j j j j g d d j g j f q -.<. .<. .<.<. . .<. .<.",
"j j j j j j j j j j j j j ; o . .     O r j j j j j j j j j j j b &.<. .` ] < R j j j j g g g j g j f q -.<.<.X. . . . . . . . .",
"j j j j j j j j s j j j s ; o . . .   O ; j j j j j j j j j j j b &.<. .` ] < R d j h j j j j j j j h q -.<.<.<. . . . . . .<. .",
"j j j j j j j j j j j j j r o . .     O r j j j j j j j j j j j b &.<. .` ] < R j j j j j g j j j g f q -.<.<.<.<.<. .<. .<. .<.",
"j j s j j s j j j j j j j ; o . . .   O r j j j j j j j j j j j b t.` ` _ ] < R j j j j j j j j g d f q -. . . .<. . .<.X. .<.<.",
"j j j j j j j j j j j j j r o . . .   O ; j j j j j j j j j j j b &. . .` ] < R g j d j g j g d j g f q -.<. . .<. . . . . . . .",
"j j j j j j j j j j j j j e o .       O r d j j j j j j j j j j b &. . .` ] < R d d j j j j j j j d h q ] ] ] ` _ ] .._ _ .._ ..",
"j j j j j j j j j j j j j ; o . .     O e j j j j j j j j j j d b &.`  . .] < R d j j g j j g j j d h q ] ` ] ` _ _ ...._ ......",
"j j j j j j s j j j j j j r o . X .   O e j j j d s j j j j j j b &.` ` _ X.< R j j j j j j j j j j p q #.` _  ._ _ _ _ _ _ _  .",
"s j j s j j d j j j j j j e o   .     O e j j j j j j j s d g g b &.`  .` ` < R d d j j j g j j j j h q #._  ._ _ _ _ .._ .._ _ ",
"j j j j j j j j j j j j j e o . . o   O e d j j j g g j g j s d b &.`  .` ] < Q j j j j g j j g d d f q #.`  ._ _  ._ _ _ _ _ ..",
"j j j j j j j j j j j j g e o . .     O e d j j g g j j j g d j b &.` _ ` ] < R j j j g j j j j d d f q -.` _ _ _ ......_ .._ _ ",
"s j j j j j j j j j j j j e o   o     O e d j j j j j j d j d d b &.`  ._ ] < R j j j g j j j j g j h q -.` _  ._ _ _ .._ _ ....",
"j j j j j j j j j j j j d e o .       O e d j j g j j j g j d d b &._ _ ` ] < R g j d d j j j g g j h q -.` ` _ ...._ _ .._ _ _ ",
"j j j j j j j j j j j j j r o .       O e j j j j j j j d j d j b &.` ` _ _ < T s g j g g g d j g g h q #._ _ ( .._ _ _ ...._ _ ",
"j j s j j j j j j j j j d e o   .     O e j j j j j j j j g d j b &.` _ _ _ < T g g j j d d j j g s f q ] ( .........._ _ ......",
"j j j j j j j j j j j j j e o .       O r j j j j j d j g g d j b &.` _ _ _ < R d j j j j h j g s j f q &._ ( ( _ _ ...._ _ ....",
"j j j j j s j j j j j j j e X   o     O r j j j j j j j g d j d b &._ _ _ _ < T j j j j j j j d j d h w ] _ _ ...._ _ _ .._ _ _ ",
"j j j j j j j j j j d j j e X . . .   O r j j j j j j j j j d d b &.` _ _ _ < u d d j d g j j j j d a q ] _ ] ( ...._ _ ...._ _ ",
"s j j j j j j j j j g j s e X . . . . O ; j j j j j j j g j d j b &._ _ _ _ < T s d j g j j g j g j f q #._ _ _ _ _ .._ _ ...._ ",
"j j j j j j j j d s d d j r o . . . . O y ^ j j j j g g g j d d b ] ] _ .._ < T g g j d j g j j g d f q ] _ _ _ _ _ .. ._ _ ....",
"j j j j j s j j s d d s s e X   .   . O t j j j j j j g g g g d b &._ _ _ _ < T d g g g j d j j j j f q #. ._ ...._ _ .._ _ _ _ ",
"j j j j j j j j j j j j j ; o .   X   O e d j j j j j j g j j d b t.<.<.<. .< Y j j j g j j j j g g f q t.` ` _ _ _ `  . . .<. .",
"j j j j j j j j j j j j j r o . . .   o e d j d j j h j j g d j b -.<.<.<.X.< Y j j j j j j j j d d f q ] ` ] ]  . . . . . . .<.",
"j j j j j j j j j j j j d e o .   .   O e d j j j j g d j j d d b t.<.<. .X.< u j j j g j d g j d d f q @.` _ _  . . . . .<. .<.",
"j j j s j j j j j j j j j r o . X .   O e h h h h j h h h g h h b r.@.O.@.-.1 T j j j j g h g h h h p 9 #._ _ _  . . . .<. . . .",
"i.i.i.i.i.j j j j j j j j y ; - - - - & k 5 0 0 0 0 0 0 0 0 0 0 w x z M M M B f j j j j ^ n 5 0 0 0 0 , 7. . ._ ` X. .i.i.i.i.i.",
"i.i.i.i.i.i.j j j j j j j j j j j s d C 7 7.7.7.7.7.7.7.+.7.] X.9 p j j g g g g j j d d P 4 { 7.X.X.7.<. .<._ _  . .i.i.i.i.i.i.",
"i.i.i.i.i.i.i.j j j j j j j j j j j j A 7 <.<.<.<.<.<.<.<.X.` ` 9 p j g j j s g d s s d J 4 } `  .<.<.7.<.` <.X. .i.i.i.i.i.i.i.",
"i.i.i.i.i.i.i.j j j j j j j j j j d d A 7 <. . . .<.<.<.X.` ` ` 9 p d j g g j d s d d d P 4 } <. .<. .<. . .X.` ` i.i.i.i.i.i.i.",
"i.i.i.i.i.i.i.j j j j j j j j j j j d S 1  .O. . . . . .<.<.<. .9 p j j j j j j j j j j H 4 } ` ` X. . .<.X.<.X.<.i.i.i.i.i.i.i.",
"i.i.i.i.i.i.i.j j j j j j j j j j j d C 3 @.t.t.@.X.: &.t.-.@.#.q p g j j j h f f i p f A 3 <.<.`  .`  . .<. .<.<.i.i.i.i.i.i.i.",
"i.i.i.i.i.i.i.i.i.i.i.i.j j j j j j j h P N N N N N N N N N N N Y j j j j j P 4 1 1 1 1 < r.<. . ._ ` X.i.i.i.i.i.i.i.i.i.i.i.i.",
"i.i.i.i.i.i.i.i.i.i.i.i.i.j j j j j j a g g j g g g d d j j j j j j j j j g D r.]  ._  . . . .<. ._  .i.i.i.i.i.i.i.i.i.i.i.i.i.",
"i.i.i.i.i.i.i.i.i.i.i.i.i.j j j j j j j j d j j g j g j j j g j d d g g j d V > ` X._  .<. . .X. . .<.i.i.i.i.i.i.i.i.i.i.i.i.i.",
"i.i.i.i.i.i.i.i.i.i.i.i.i.j j j j j j j j j j j j j j j d j j j g j g g j j V r.`  ._ _  . . .<. . . .i.i.i.i.i.i.i.i.i.i.i.i.i.",
"i.i.i.i.i.i.i.i.i.i.i.i.i.j j j s g j j j j j j j j j j g j d j j j j j j g Z : ` `  . . . . .<.<. . .i.i.i.i.i.i.i.i.i.i.i.i.i.",
"i.i.i.i.i.i.i.i.i.i.i.i.i.j j j d d d j j j j j j j j j j j j g j j j g g g Z :  .` _ <. .<.<. .<. .<.i.i.i.i.i.i.i.i.i.i.i.i.i."
};
