/* XPM */
static char *angry_mask[] = {
/* columns rows colors chars-per-pixel */
"48 48 6 1 ",
"  c black",
". c #F87808",
"X c #A008D8",
"o c #B078F8",
"O c #F8D088",
"+ c None",
/* pixels */
"++++++++++++++++++++++++++++++++++++++++++++++++",
"++++++++++++++++++++++++++++++++++++++++++++++++",
"++++++++++++++++++++++++++++++++++++++++++++++++",
"++++++++++++++++     ++++++     ++++++++++++++++",
"++++++++    +++ .OOO. ++++ .OOO. +++    ++++++++",
"+++++++ .OOO + .....O. ++ .O..... + OOO. +++++++",
"+++++   O...O  .    .O ++ O.    .  O...O   +++++",
"++++ .. .   .O  OOOO O.  .O OOOO  O.   . .. ++++",
"++++  .  .OO .  O..O. O  O .O..O  . OO.  .  ++++",
"++++ . .  ..O . ....O O  O O.... . O..  . . ++++",
"+++++ . . ...O   ...O.    .O...   O... . . +++++",
"++++++ . . ....  ....O.  .O....  .... . . ++++++",
"+++++++ .   ...   .....  .....   ...   . +++++++",
"++++++++                                ++++++++",
"+++++++++ XX  ooooXX  oooo  XXoooo  XX +++++++++",
"+++++++++ X  oX      oXXXXo      Xo  X +++++++++",
"++++++++++  oX oooX  XXXXXX  Xooo Xo  ++++++++++",
"++++++++++ oX oooooX  XXXX  Xooooo Xo ++++++++++",
"++++++++++ oX oXXXooX      XooXXXo Xo ++++++++++",
"++++++++++  X X   XXoXoXXoXoXX   X X  ++++++++++",
"+++++++++ X   X oo XXooXXooXX oo X   X +++++++++",
"++++++++ Xo   X Xo   XoXXoX   oX X   oX ++++++++",
"+++++++++ X XX X oo   XXXX   oo X XX X +++++++++",
"++++++++++ XXXXXX     XXXX     XXXXXX ++++++++++",
"++++++++++ XXXXX XX  XXXXXX  XX XXXXX ++++++++++",
"++++++++++ oXXXXX   XXXXXXXX   XXXXXo ++++++++++",
"++++++++++ oXXXXXXXXXXXXXXXXXXXXXXXXo ++++++++++",
"+++++++++++ oXXXoooXXXXXXXXXXoooXXXo +++++++++++",
"++++++++++    XooXXXXXXXXXXXXXXooX    ++++++++++",
"+++++++++ X  XXXXXXXX      XXXXXXXX  X +++++++++",
"++++++++ Xo  XXXXXX   XXXX   XXXXXX  oX ++++++++",
"+++++++++ X XXo     XooooooX     oXX X +++++++++",
"++++++++++ XXoX X  XoXXXXXXoX  X XoXX ++++++++++",
"+++++++++ XXooX X XXX      XXX X XooXX +++++++++",
"+++++++++ XXooX oooX XXXXXX Xooo XooXX +++++++++",
"++++++++++ XXoXX   XXXXXXXXXX   XXoXX ++++++++++",
"+++++++++++ XXoX  XXXXXXXXXXXX  XoXX +++++++++++",
"++++++++++   XXoXXXXXX    XXXXXXoXX   ++++++++++",
"+++++++++ Xo  XX       XX       XX  oX +++++++++",
"+++++++++ oXX   +++++ XooX +++++   XXo +++++++++",
"+++++++++ X  +++++++ XXooXX +++++++  X +++++++++",
"++++++++++ ++++++++++ XooX ++++++++++ ++++++++++",
"++++++++++++++++++++++ oo ++++++++++++++++++++++",
"++++++++++++++++++++++ XX ++++++++++++++++++++++",
"+++++++++++++++++++++++  +++++++++++++++++++++++",
"++++++++++++++++++++++++++++++++++++++++++++++++",
"++++++++++++++++++++++++++++++++++++++++++++++++",
"++++++++++++++++++++++++++++++++++++++++++++++++"
};
