/* XPM */
static char *angry_mask[] = {
/* columns rows colors chars-per-pixel */
"64 64 208 2 ",
"   c #010001",
".  c #0B0500",
"X  c #07030A",
"o  c #09020D",
"O  c #1D0E01",
"+  c #170B01",
"@  c #0E0112",
"#  c #0F0B15",
"$  c #15011C",
"%  c #13091A",
"&  c #15111E",
"*  c #221102",
"=  c #2E1400",
"-  c #331700",
";  c #3D1D02",
":  c #361A01",
">  c #231C11",
",  c #180320",
"<  c #1E0029",
"1  c #170B21",
"2  c #191123",
"3  c #22012D",
"4  c #240131",
"5  c #2C013B",
"6  c #290738",
"7  c #281B3A",
"8  c #383021",
"9  c #4D1F00",
"0  c #4C2402",
"q  c #472202",
"w  c #562C03",
"e  c #5B2C03",
"r  c #502703",
"t  c #5D3712",
"y  c #632E01",
"u  c #6C3202",
"i  c #6A3406",
"p  c #743804",
"a  c #6A3F15",
"s  c #493921",
"d  c #6E471E",
"f  c #5B492D",
"g  c #58472C",
"h  c #554B34",
"j  c #5B5139",
"k  c #795A33",
"l  c #7F633C",
"z  c #330145",
"x  c #3A024E",
"c  c #360349",
"v  c #38134E",
"b  c #3C0253",
"n  c #3C0A51",
"m  c #3D1654",
"M  c #38284F",
"N  c #3D2D5B",
"B  c #3B2C54",
"V  c #3C3055",
"C  c #44035C",
"Z  c #400356",
"A  c #412A5B",
"S  c #41305B",
"D  c #490363",
"F  c #490963",
"G  c #51056E",
"H  c #560374",
"J  c #5B037B",
"K  c #481D63",
"L  c #442D61",
"P  c #4D296C",
"I  c #493466",
"U  c #533274",
"Y  c #823F04",
"T  c #8D4404",
"R  c #964905",
"E  c #9B4A03",
"W  c #934705",
"Q  c #965213",
"!  c #BB5B06",
"~  c #B65806",
"^  c #AA5C13",
"/  c #A75105",
"(  c #946631",
")  c #A56F30",
"_  c #C25E05",
"`  c #D56706",
"'  c #DA6A07",
"]  c #D66807",
"[  c #D47116",
"{  c #F97604",
"}  c #FB7906",
"|  c #F57809",
" . c #FB7A09",
".. c #F67708",
"X. c #E97007",
"o. c #987B4C",
"O. c #FA8316",
"+. c #FA8418",
"@. c #FF810F",
"#. c #C98438",
"$. c #F58C26",
"%. c #F88D27",
"&. c #E68D32",
"*. c #E59338",
"=. c #FD9A36",
"-. c #FF9828",
";. c #FEA13F",
":. c #9A855A",
">. c #97845B",
",. c #A38A5B",
"<. c #BE9457",
"1. c #C58E49",
"2. c #E69B47",
"3. c #F8A447",
"4. c #F9AC53",
"5. c #FFB65C",
"6. c #FFBB5F",
"7. c #FFB253",
"8. c #DAAC68",
"9. c #D6A966",
"0. c #F9BB69",
"q. c #F9BA67",
"w. c #E9C17C",
"e. c #FCC87A",
"r. c #5E0580",
"t. c #620584",
"y. c #620B85",
"u. c #66048A",
"i. c #69058D",
"p. c #66128A",
"a. c #6E0594",
"s. c #6F0C96",
"d. c #74069C",
"f. c #6B1092",
"g. c #72109B",
"h. c #6E2297",
"j. c #6A3693",
"k. c #63378B",
"l. c #7705A1",
"z. c #7906A3",
"x. c #7E04AA",
"c. c #614588",
"v. c #6C4899",
"b. c #70499E",
"n. c #7452A4",
"m. c #7F54B2",
"M. c #7749A7",
"N. c #8A06BB",
"B. c #8B08BC",
"V. c #861BB7",
"C. c #8003AC",
"Z. c #8623B8",
"A. c #8021AF",
"S. c #8459B9",
"D. c #8F05C1",
"F. c #8F08C1",
"G. c #9105C4",
"H. c #9606CA",
"J. c #9709CC",
"K. c #8F15C2",
"L. c #9F06D6",
"P. c #9E08D6",
"I. c #9816CE",
"U. c #A006D7",
"Y. c #A206DB",
"T. c #A108D9",
"R. c #A215DC",
"E. c #A218DC",
"W. c #9326CA",
"Q. c #9B2CD4",
"!. c #9C31D7",
"~. c #A323DE",
"^. c #A609E0",
"/. c #AA07E5",
"(. c #AA17E7",
"). c #A822E5",
"_. c #A928E7",
"`. c #A535E4",
"'. c #AB32EB",
"]. c #AC3AED",
"[. c #A738E6",
"{. c #B13CF3",
"}. c #995BD6",
"|. c #9A56D7",
" X c #9848D3",
".X c #A043DE",
"XX c #9868D6",
"oX c #AA44EB",
"OX c #AA4AEC",
"+X c #A44AE3",
"@X c #AB52EE",
"#X c #AA5AED",
"$X c #AE4CF1",
"%X c #B24FF7",
"&X c #AF52F2",
"*X c #AD5BF2",
"=X c #B154F6",
"-X c #AE6AF4",
";X c #AD65F3",
":X c #B26AF9",
">X c #AE74F5",
",X c #B275FA",
"<X c #B079F9",
"1X c #B475FB",
"2X c #A86EEB",
"3X c #FFD483",
"4X c #B681FE",
"5X c None",
/* pixels */
"5X5X5X5X5X5X5X5X5X5X5X5X5X5X5X5X5X5X5X5X5X5X5X5X5X5X5X5X5X5X5X5X5X5X5X5X5X5X5X5X5X5X5X5X5X5X5X5X5X5X5X5X5X5X5X5X5X5X5X5X5X5X5X5X",
"5X5X5X5X5X5X5X5X5X5X5X5X5X5X5X5X5X5X5X5X5X5X5X5X5X5X5X5X5X5X5X5X5X5X5X5X5X5X5X5X5X5X5X5X5X5X5X5X5X5X5X5X5X5X5X5X5X5X5X5X5X5X5X5X",
"5X5X5X5X5X5X5X5X5X5X5X5X5X5X5X5X5X5X5X5X5X5X5X5X5X5X5X5X5X5X5X5X5X5X5X5X5X5X5X5X5X5X5X5X5X5X5X5X5X5X5X5X5X5X5X5X5X5X5X5X5X5X5X5X",
"5X5X5X5X5X5X5X5X5X5X5X5X5X5X5X5X5X5X5X5X5X5X5X5X5X5X5X5X5X5X5X5X5X5X5X5X5X5X5X5X5X5X5X5X5X5X5X5X5X5X5X5X5X5X5X5X5X5X5X5X5X5X5X5X",
"5X5X5X5X5X5X5X5X5X5X5X5X5X5X5X5X5X5X5X5X5X              5X5X5X5X5X5X5X5X  X       .   5X5X5X5X5X5X5X5X5X5X5X5X5X5X5X5X5X5X5X5X5X",
"5X5X5X5X5X5X5X5X5X5X5X          5X5X5X5X  u ( :.>.:.) T O 5X5X5X5X5X5XO T ( :.>.o.( u   5X5X5X5X          5X5X5X5X5X5X5X5X5X5X5X",
"5X5X5X5X5X5X5X5X5X5X- e g h h h 5X5X5X5Xw _ -.6.6.6.7.&.p = 5X5X5X5X= p &.7.q.6.q.-._ w 5X5X5X5Xg h h f w - 5X5X5X5X5X5X5X5X5X5X",
"5X5X5X5X5X5X5X5X5X  e $.q.e.e.8.s 5X5X* ] X.` ] ] ` &.0.$.w   5X5X  w $.q.&.` ' ` ` X.` * 5X5Xs 8.e.e.0.$.e   5X5X5X5X5X5X5X5X5X",
"5X5X5X5X5X5X5X      f 0.%.+.+.$.8.h   * ] p O * * O p $.0.f   5X5X  f 0.$.p + * * O p ` *   f 8.$.+.+.%.0.h       5X5X5X5X5X5X5X",
"5X5X5X5X5X5X0 E E = t &.i 0 9 i *.1.j . 0 ( >.>.>.>.k a w.#.u     u #.w.a k :.:.>.:.( 0 + j 1.*.i 0 0 i &.t = R / 0 5X5X5X5X5X5X",
"5X5X5X5X5X  : ~ | e - W y s h h T *.o.    ,.3X5.6.3X<.t o.2.^ X   ) 2.o.t <.3Xq.q.3X:.X   o.*.Y f h s y R - e | / :   5X5X5X5X5X",
"5X5X5X5X5X    ; ! i . O ~ 4.e.9.s E E O X :.7...| 4.5.[ * :.,.    ,.:.O [ 7.4.| } 7.o.  O E R s 9.3X3.! O . u ! ; .   5X5X5X5X5X",
"5X5X5X5X5X  r ! ; E T   O ^ +.%.8.f y ~ O Q O.} .. .3.9.> :.,.    ,.:.> 9.;. .| } O.Q * ~ y f 9.$.+.^ *   W R ; ~ r   5X5X5X5X5X",
"5X5X5X5X5X5X: i R p p T O E }  .=.1.l 0 . - R  .} { =.w.^ d 8     8 d ^ w.=.{ | | E - . 0 l <.=.|  .E + T p p R i : 5X5X5X5X5X5X",
"5X5X5X5X5X5X5X* W p p W y T _  .} 3.#.0 .   e  .} } %.4.;.Q =     = Q ;.4.%.}  . .e   . 0 1.=.}  ._ Y u R p p W * 5X5X5X5X5X5X5X",
"5X5X5X5X5X5X5X5X  W R ; ! r 0 ' |  . .] *   0 ] .. .} +.q.=.E     E =.q.+.} } | ' r   * `  .} | ' q 0 ! ; R W   5X5X5X5X5X5X5X5X",
"5X5X5X5X5X5X5X5X5X+ i ! ;     q ' } } ] *     q '  .|  .+. .E     E  .O.| |  .' q     O ' }  .' q   . ; ! i + 5X5X5X5X5X5X5X5X5X",
"5X5X5X5X5X5X5X5X5X5X; r .     . r e e q .     . q w w e e w :     : w w e e w q .     . 0 e e r .     . r ; 5X5X5X5X5X5X5X5X5X5X",
"5X5X5X5X5X5X5X5X5X5X5X    4 Z c o   2 N S S L L b b 4     7 N N S L 7     4 b b A L L L N 1   X c Z 4     5X5X5X5X5X5X5X5X5X5X5X",
"5X5X5X5X5X5X5X5X5X5X5X5X  t.T.z.$ X I -XXXXXXX}.V.D.H X 1 M.:X-X-X:XM.& X H G.V.}.XXXXXX2XU X # z.P.u.  5X5X5X5X5X5X5X5X5X5X5X5X",
"5X5X5X5X5X5X5X5X5X5X5X5X  i.d.$ X c.+XK.6 2 2 2 $ , o & S.`.E.E.E.R.`.S.& o $ $ 2 1 & 7 K.+Xc.X $ d.i.  5X5X5X5X5X5X5X5X5X5X5X5X",
"5X5X5X5X5X5X5X5X5X5X5X5X5Xz 3 # c..XZ.v c.b.v.v.y.3   , Q.(.Y.Y.P.L.(.Q.,   4 y.v.v.v.k.n Z..Xc.# 4 z 5X5X5X5X5X5X5X5X5X5X5X5X5X",
"5X5X5X5X5X5X5X5X5X5X5X5X5X  & P +XA.G I 2X4X<X1X].p.< @ H G.^.Y.^.^.D.H @ < p.].1X4X4X2XI G Z.+XU %   5X5X5X5X5X5X5X5X5X5X5X5X5X",
"5X5X5X5X5X5X5X5X5X5X5X5X5X  N -XE.z B <X:X-X-X:X>X].s.$   H B.N.N.D.H   $ s.].,X-X-X-X>X>XB z E.-XB   5X5X5X5X5X5X5X5X5X5X5X5X5X",
"5X5X5X5X5X5X5X5X5X5X5X5X5X  N ;XE.z V -X~.R.R.~.:X<X+Xz.$ o $ $ , , o $ l.oX>X-X).R.R.).-XV z E.-XN   5X5X5X5X5X5X5X5X5X5X5X5X5X",
"5X5X5X5X5X5X5X5X5X5X5X5X5X  & P J.x v Q.D z 5 C Q.'.oX+Xa.j.j.t.r.j.j.s.+XoX'.Q.C 5 z C W.v x J.P &   5X5X5X5X5X5X5X5X5X5X5X5X5X",
"5X5X5X5X5X5X5X5X5X5X5X5X5Xz 4 @ H 3 x N.$ 7 B A t.N.).$X].:X=XY.^.=X:X].$X).N.t.A M 7 $ N.x 3 H @ 3 z 5X5X5X5X5X5X5X5X5X5X5X5X5X",
"5X5X5X5X5X5X5X5X5X5X5X5X$ g.f.      b N.$ v.1XXX& H G.K.#X<X@XT.L.OX<X#XK.N.H 1 XX1Xv., B.Z       f.g.$ 5X5X5X5X5X5X5X5X5X5X5X5X",
"5X5X5X5X5X5X5X5X5X5X5X$ z.OXb.      Z N.$ y.{.XX2 o $ 6 B.*X@XT.P.@X*XK.5 $ X 2 XX{.y., N.b       b.oXz.$ 5X5X5X5X5X5X5X5X5X5X5X",
"5X5X5X5X5X5X5X5X5X5X5X5Xb Z.h.@ H i.G b J C k.>XS.7   o z A.).T.P.).V.z X   7 m.:Xk.C J x H i.H @ h.Z.x 5X5X5X5X5X5X5X5X5X5X5X5X",
"5X5X5X5X5X5X5X5X5X5X5X5X  D H D J./.z.C J.t.K b.b.7       u.Y.T.P.Y.u.      7 n.v.L t.H.C z./.J.D H D X 5X5X5X5X5X5X5X5X5X5X5X5X",
"5X5X5X5X5X5X5X5X5X5X5X5X5X  x P.T.T.T.T.Y.H.J , $ o     $ a.^.T.T.^.a.$     o $ , J H.T.T.T.T.U.P.x   5X5X5X5X5X5X5X5X5X5X5X5X5X",
"5X5X5X5X5X5X5X5X5X5X5X5X5X  c Y.T.T.T.T.P.C b N.N.z   $ z.P.T.P.P.T.P.l.$   z N.N.b C T.T.T.P.T.T.c   5X5X5X5X5X5X5X5X5X5X5X5X5X",
"5X5X5X5X5X5X5X5X5X5X5X5X5X  m OXR.U.U.T.U.z.G x x @ 3 a.P.T.T.T.T.T.Y.P.a.3 @ c c G z.P.T.P.Y.R.oXm   5X5X5X5X5X5X5X5X5X5X5X5X5X",
"5X5X5X5X5X5X5X5X5X5X5X5X5X  S :XR.U.T.P.T.^.x.z z z t.Y.P.P.P.T.P.P.T.T.Y.y.c z z x./.P.T.T.P.R.,XS   5X5X5X5X5X5X5X5X5X5X5X5X5X",
"5X5X5X5X5X5X5X5X5X5X5X5X5X  B XX~.T.Y.U.U.R.E.E.R.R.P.T.T.T.T.T.T.T.T.P.T.T.P.E.R.R.R.T.Y.P.Y.~.}.B   5X5X5X5X5X5X5X5X5X5X5X5X5X",
"5X5X5X5X5X5X5X5X5X5X5X5X5X5X5X7 }._.P.T.T.OX-X;X-X_.P.P.T.T.T.T.P.Y.P.T.T.Y._.-X;X:XOXL.P.P._.}.7 5X5X5X5X5X5X5X5X5X5X5X5X5X5X5X",
"5X5X5X5X5X5X5X5X5X5X5X5X5X5X  o M v H R.OX>X;X`.`.R.U.T.Y.Y.^.^.^.^.^.Y.T.L.E.`.`.;X>XOXR.J v M o   5X5X5X5X5X5X5X5X5X5X5X5X5X5X",
"5X5X5X5X5X5X5X5X5X5X5X5X5Xz 4     3 J R.OX@X`.P.U.Y.^.P.a.t.t.t.t.t.t.a.P.^.Y.P.L.`.@XOXR.J <     4 z 5X5X5X5X5X5X5X5X5X5X5X5X5X",
"5X5X5X5X5X5X5X5X5X5X5X5X$ g.f.    u.Y.Y.T.T.Y.Y.T.H.B.d.$ @ $ $ $ $ o $ l.B.G.Y.T.T.T.Y.L.^.u.    f.g.$ 5X5X5X5X5X5X5X5X5X5X5X5X",
"5X5X5X5X5X5X5X5X5X5X5X$ z.OXb.    u.^.Y.P.P.T.T.P.D % @ X H D.N.N.D.H X $ @ F P.P.P.L.T.Y.^.u.    b.OXz.$ 5X5X5X5X5X5X5X5X5X5X5X",
"5X5X5X5X5X5X5X5X5X5X5X5Xb Z.h.@ H N.). XF z c x b @ 3 y.v.|.=X&X=X=X|.v.y.3 $ x x c z F  X).N.H @ h.Z.x 5X5X5X5X5X5X5X5X5X5X5X5X",
"5X5X5X5X5X5X5X5X5X5X5X5X  D G D J.).oX X1 < 4     3 p.].%X=X&X&X&X&X=X%X].p.3     4 < 2  XoX).H.D H D   5X5X5X5X5X5X5X5X5X5X5X5X",
"5X5X5X5X5X5X5X5X5X5X5X5X5X@ D P.R.&X=XN.$ u.a.  $ a._.#XK.N.N.N.N.N.N.K.#X_.a.$   i.i.$ N.&X*XE.P.C @ 5X5X5X5X5X5X5X5X5X5X5X5X5X",
"5X5X5X5X5X5X5X5X5X5X5X5X  H H.R.#X<X&XN.$ i.i.$ l.P.T.K.6 $ , $ $ $ $ 6 K.T.P.z.$ i.i., N.$X<X#XR.H.H X 5X5X5X5X5X5X5X5X5X5X5X5X",
"5X5X5X5X5X5X5X5X5X5X5X5X  a./.E.-X4X&XB., j.|.S.&X_.l.b H t.t.t.t.t.t.J b l._.@XS.|.j., N.&X4X-XE./.i.  5X5X5X5X5X5X5X5X5X5X5X5X",
"5X5X5X5X5X5X5X5X5X5X5X5X  C x.^.OX>X&XG.D U M.n.v.W.l.C H./.^.^.^.^./.H.C z.W.v.M.n.U D G.&X-XOXR.x.C   5X5X5X5X5X5X5X5X5X5X5X5X",
"5X5X5X5X5X5X5X5X5X5X5X5X5X  c B.P.OXOXE.T.b     $ d.Y.P.T.Y.T.T.T.T.T.L.T.Y.a.$     b T.R.@XOXP.B.c   5X5X5X5X5X5X5X5X5X5X5X5X5X",
"5X5X5X5X5X5X5X5X5X5X5X5X5X5X5X6 B.T.].*XE.x   $ d.P.T.T.T.T.P.P.T.P.T.T.T.Y.P.l.$   x E.*X[.E.B.5 5X5X5X5X5X5X5X5X5X5X5X5X5X5X5X",
"5X5X5X5X5X5X5X5X5X5X5X5X5X5X  X z C.(.[.@XA.i.d.Y./.^.Y.Y.t.c z c z t.Y.Y.^.^.T.d.i.A.@X[.(.C.z X   5X5X5X5X5X5X5X5X5X5X5X5X5X5X",
"5X5X5X5X5X5X5X5X5X5X5X5X5X5 m M o b C.^.$XA.u.i.t.u.t.t.u.4 @ c z @ 4 u.u.t.t.u.u.u.Z.OX^.C.b X M m 5 5X5X5X5X5X5X5X5X5X5X5X5X5X",
"5X5X5X5X5X5X5X5X5X5X5X5X  y.{.|.7   z B.N.c               o F R.E.F o               c N.B.z X 6 }.].i.  5X5X5X5X5X5X5X5X5X5X5X5X",
"5X5X5X5X5X5X5X5X5X5X5X5X  v.&XR.B.z   $ $ 5X5X5X5X5X5X5X  H !.;X-X!.H   5X5X5X5X5X5X5X$ $   z B.R.&Xb.  5X5X5X5X5X5X5X5X5X5X5X5X",
"5X5X5X5X5X5X5X5X5X5X5X5X  h.Z.x b 4 5X5X5X5X5X5X5X5X5X$ t.G.'.<X<X'.G.t.$ 5X5X5X5X5X5X5X5X5X4 b x Z.h.  5X5X5X5X5X5X5X5X5X5X5X5X",
"5X5X5X5X5X5X5X5X5X5X5X5X  D D     5X5X5X5X5X5X5X5X5X5X$ J G.'.,X,X'.D.r.$ 5X5X5X5X5X5X5X5X5X5X    D D   5X5X5X5X5X5X5X5X5X5X5X5X",
"5X5X5X5X5X5X5X5X5X5X5X5X5X    5X5X5X5X5X5X5X5X5X5X5X5X5X  H !.,X,X!.H   5X5X5X5X5X5X5X5X5X5X5X5X5X    5X5X5X5X5X5X5X5X5X5X5X5X5X",
"5X5X5X5X5X5X5X5X5X5X5X5X5X5X5X5X5X5X5X5X5X5X5X5X5X5X5X5X5X@ P <X<XP o 5X5X5X5X5X5X5X5X5X5X5X5X5X5X5X5X5X5X5X5X5X5X5X5X5X5X5X5X5X",
"5X5X5X5X5X5X5X5X5X5X5X5X5X5X5X5X5X5X5X5X5X5X5X5X5X5X5X5X5X  m _._.m   5X5X5X5X5X5X5X5X5X5X5X5X5X5X5X5X5X5X5X5X5X5X5X5X5X5X5X5X5X",
"5X5X5X5X5X5X5X5X5X5X5X5X5X5X5X5X5X5X5X5X5X5X5X5X5X5X5X5X5X5X5 u.t.z 5X5X5X5X5X5X5X5X5X5X5X5X5X5X5X5X5X5X5X5X5X5X5X5X5X5X5X5X5X5X",
"5X5X5X5X5X5X5X5X5X5X5X5X5X5X5X5X5X5X5X5X5X5X5X5X5X5X5X5X5X5X5X    5X5X5X5X5X5X5X5X5X5X5X5X5X5X5X5X5X5X5X5X5X5X5X5X5X5X5X5X5X5X5X",
"5X5X5X5X5X5X5X5X5X5X5X5X5X5X5X5X5X5X5X5X5X5X5X5X5X5X5X5X5X5X5X5X5X5X5X5X5X5X5X5X5X5X5X5X5X5X5X5X5X5X5X5X5X5X5X5X5X5X5X5X5X5X5X5X",
"5X5X5X5X5X5X5X5X5X5X5X5X5X5X5X5X5X5X5X5X5X5X5X5X5X5X5X5X5X5X5X5X5X5X5X5X5X5X5X5X5X5X5X5X5X5X5X5X5X5X5X5X5X5X5X5X5X5X5X5X5X5X5X5X",
"5X5X5X5X5X5X5X5X5X5X5X5X5X5X5X5X5X5X5X5X5X5X5X5X5X5X5X5X5X5X5X5X5X5X5X5X5X5X5X5X5X5X5X5X5X5X5X5X5X5X5X5X5X5X5X5X5X5X5X5X5X5X5X5X",
"5X5X5X5X5X5X5X5X5X5X5X5X5X5X5X5X5X5X5X5X5X5X5X5X5X5X5X5X5X5X5X5X5X5X5X5X5X5X5X5X5X5X5X5X5X5X5X5X5X5X5X5X5X5X5X5X5X5X5X5X5X5X5X5X"
};
