/* XPM */
static char *font[] = {
/* columns rows colors chars-per-pixel */
"64 64 2 1 ",
"  c white",
". c None",
/* pixels */
".  ...... .......  .....   ....... .....    ...... .....    ....",
" .. ....  ...... .. ....... ...... ..... ........ ......... ....",
" .. ..... ......... ....... .....  ..... ....... .......... ....",
" .  ..... ......... .....  ......  .....   .....   ....... .....",
"  . ..... .......  ........ .... . ........ .... .. ...... .....",
" .. ..... ...... .......... ....    ....... .... .. ...... .....",
" .. ..... ...... .......... ...... ........ .... .. ..... ......",
".  .....   .....    ....   ....... .....   ......  ...... ......",
".  ......  .....................................................",
" .. .... .. ....................................................",
" .. .... .. ....................................................",
".  ......   ....................................................",
" .. ....... ....................................................",
" .. ...... .....................................................",
" .. ...... .....................................................",
".  ...... ......................................................",
".  .....   ......  .....   .....    ....    ....................",
" .. .... .. .... .. .... .. .... ....... .......................",
" .. .... .. .... ....... .. .... ....... .......................",
"    ....   ..... ....... .. ....   .....   .....................",
" .. .... .. .... ....... .. .... ....... .......................",
" .. .... .. .... ....... .. .... ....... .......................",
" .. .... .. .... .. .... .. .... ....... .......................",
" .. ....   ......  .....   .....    .... .......................",
".  ..... .. ....     ....... .... .. .... ....... .. ... .. ....",
" .. .... .. ...... ......... .... . ..... ....... .. ...  . ....",
" ....... .. ...... ......... ....  ...... .......    ...  . ....",
" .  ....    ...... ......... ....  ...... .......    ...  . ....",
" .. .... .. ...... ......... ....  ...... .......  . ... .  ....",
" .. .... .. ...... ...... .. ....  ...... ....... .. ... .  ....",
" .. .... .. ...... ...... .. .... . ..... ....... .. ... .  ....",
".   .... .. ....     .....  ..... .. ....    .... .. ... .. ....",
".  .....   ......  .....   ......   ....     ... .. .... .. ....",
" .. .... .. .... .. .... .. .... ......... ..... .. .... .. ....",
" .. .... .. .... .. .... .. .... ......... ..... .. .... . .....",
" .. ....   ..... .. ....   ......  ....... ..... .. .... . .....",
" .. .... ....... .. ....  ......... ...... ..... .. .... . .....",
" .. .... .......  . .... . ........ ...... ..... .. .... . .....",
" .. .... ....... .  .... . ........ ...... ..... .. ..... ......",
".  ..... ........  ..... .. ....   ....... ......  ...... ......",
" .. .... .. .... ... ....    ...................................",
" .. .....  ...... . ........ ...................................",
" .. .....  ...... . ....... ....................................",
" .. .....  ...... . ....... ....................................",
"  . .....  ....... ....... .....................................",
"    .....  ....... ....... .....................................",
"    .....  ....... ...... ......................................",
" .. .... .. ...... ......    ...................................",
"................................................................",
"................................................................",
"................................................................",
"................................................................",
"................................................................",
"................................................................",
"................................................................",
"................................................................",
"................................................................",
"................................................................",
"................................................................",
"................................................................",
"................................................................",
"................................................................",
"................................................................",
"................................................................"
};
