/* XPM */
static char *green_vampire[] = {
/* columns rows colors chars-per-pixel */
"64 64 171 2 ",
"   c #000100",
".  c #010B04",
"X  c #0D0A07",
"o  c #011407",
"O  c #021709",
"+  c #03190A",
"@  c #0F1A0D",
"#  c #0C140A",
"$  c #15110B",
"%  c #161A0F",
"&  c #1E1A11",
"*  c #221D13",
"=  c #03250E",
"-  c #012B0E",
";  c #022C10",
":  c #033413",
">  c #043B16",
",  c #123E1B",
"<  c #2D2619",
"1  c #3C2D1F",
"2  c #25311B",
"3  c #3B3321",
"4  c #453A26",
"5  c #403623",
"6  c #07441A",
"7  c #064C1C",
"8  c #0E4E1F",
"9  c #004617",
"0  c #02541F",
"q  c #1A4720",
"w  c #095D24",
"e  c #045921",
"r  c #264723",
"t  c #264822",
"y  c #374526",
"u  c #225126",
"i  c #016423",
"p  c #0A6426",
"a  c #0A6928",
"s  c #046926",
"d  c #106127",
"f  c #1E6F2F",
"g  c #166A2B",
"h  c #05712A",
"j  c #0B742C",
"k  c #0B7A2F",
"l  c #0C7E30",
"z  c #1E7030",
"x  c #177830",
"c  c #21692E",
"v  c #287734",
"b  c #3A7538",
"n  c #4E412B",
"m  c #47492C",
"M  c #54452E",
"N  c #58462F",
"B  c #52492E",
"V  c #5C4C32",
"C  c #415B31",
"Z  c #545433",
"A  c #674D35",
"S  c #635236",
"D  c #6D5B3C",
"F  c #6B5138",
"G  c #775D3F",
"H  c #686A3F",
"J  c #62613A",
"K  c #746140",
"L  c #6F7E48",
"P  c #657945",
"I  c #856D48",
"U  c #8C754D",
"Y  c #867D4E",
"T  c #90754E",
"R  c #947C51",
"E  c #9A7F54",
"W  c #04812F",
"Q  c #0C8332",
"!  c #0D8C35",
"~  c #079236",
"^  c #0E9137",
"/  c #0D9438",
"(  c #0B9D3B",
")  c #139A3C",
"_  c #29953F",
"`  c #05A63C",
"'  c #0EA33E",
"]  c #0BA93F",
"[  c #10A53F",
"{  c #2A9540",
"}  c #2D9842",
"|  c #0EAB41",
" . c #11AB41",
".. c #1AAB43",
"X. c #0BB342",
"o. c #11B144",
"O. c #2CAD49",
"+. c #30AE4A",
"@. c #24B048",
"#. c #31B64D",
"$. c #5C9E4F",
"%. c #509B4B",
"&. c #6F8F4F",
"*. c #64954E",
"=. c #57A24F",
"-. c #47AE50",
";. c #58A751",
":. c #49B252",
">. c #5CB357",
",. c #5CBA59",
"<. c #5EB558",
"1. c #67BD5D",
"2. c #6CBC5E",
"3. c #70BC5F",
"4. c #68AD58",
"5. c #79BE62",
"6. c #6BC15F",
"7. c #6CC160",
"8. c #8C8452",
"9. c #8F9D5C",
"0. c #909D5C",
"q. c #9E8557",
"w. c #A58459",
"e. c #A68B5B",
"r. c #A88D5C",
"t. c #8DA75F",
"y. c #B79A64",
"u. c #BB9D67",
"i. c #B79864",
"p. c #97A460",
"a. c #A4AD67",
"s. c #BFA069",
"d. c #BAAF6D",
"f. c #BEB26F",
"g. c #C19F69",
"h. c #C4A46C",
"j. c #D5B375",
"k. c #DAB577",
"l. c #DBBB7A",
"z. c #D5BB78",
"x. c #E1BC7C",
"c. c #92C66B",
"v. c #A1C86F",
"b. c #B0C873",
"n. c #B6C574",
"m. c #A5D073",
"M. c #C0C677",
"N. c #C8CA7A",
"B. c #DCC67E",
"V. c #D9CB7E",
"C. c #D7C97D",
"Z. c #CFD07F",
"A. c #D1D07F",
"S. c #E8C27F",
"D. c #DDCC80",
"F. c #CDD781",
"G. c #DFD182",
"H. c #D2D381",
"J. c #E9C480",
"K. c #E4CC82",
"L. c #E8CD83",
"P. c #F3CC85",
"I. c #EBD486",
"U. c #E7D286",
"Y. c #F6D087",
"T. c #F2D489",
"R. c #FAD289",
"E. c #FFD98E",
"W. c #F2DA8C",
"Q. c #FFDD91",
"!. c None",
/* pixels */
"!.!.!.!.!.!.!.!.!.!.!.!.!.!.!.!.!.!.!.!.!.!.!.!.!.!.!.!.!.!.!.!.!.!.!.!.!.!.!.!.!.!.!.!.!.!.!.!.!.!.!.!.!.!.!.!.!.!.!.!.!.!.!.!.",
"!.!.!.!.!.!.!.!.!.!.!.!.!.!.!.!.!.!.!.!.!.!.!.!.!.!.!.!.!.!.!.!.!.!.!.!.!.!.!.!.!.!.!.!.!.!.!.!.!.!.!.!.!.!.!.!.!.!.!.!.!.!.!.!.",
"!.!.!.!.!.!.!.!.!.!.!.!.!.!.!.!.!.!.!.!.!.!.!.!.!.!.!.!.!.!.!.!.!.!.!.!.!.!.!.!.!.!.!.!.!.!.!.!.!.!.!.!.!.!.!.!.!.!.!.!.!.!.!.!.",
"!.!.!.!.!.!.!.!.!.!.!.!.!.!.!.!.!.!.!.!.!.!.!.!.!.!.!.!.!.!.!.!.!.!.!.!.!.!.!.!.!.!.!.!.!.!.!.!.!.!.!.!.!.!.!.!.!.!.!.!.!.!.!.!.",
"!.!.!.!.!.!.!.!.!.!.!.!.!.!.!.!.!.!.!.!.!.!.!.!.!.!.!.!.!.!.!.!.!.!.!.!.!.!.!.!.!.!.!.!.!.!.!.!.!.!.!.!.!.!.!.!.!.!.!.!.!.!.!.!.",
"!.!.!.!.!.!.!.!.!.!.!.!.!.!.!.!.!.!.!.!.!.!.!.!.!.!.!.!.!.!.!.!.!.!.!.!.!.!.!.!.!.!.!.!.!.!.!.!.!.!.!.!.!.!.!.!.!.!.!.!.!.!.!.!.",
"!.!.!.!.!.!.!.!.!.!.!.!.!.!.!.!.!.!.!.!.!.!.!.!.!.!.!.!.!.!.!.!.!.!.!.!.!.!.!.!.!.!.!.!.!.!.!.!.!.!.!.!.!.!.!.!.!.!.!.!.!.!.!.!.",
"!.!.!.!.!.!.!.!.!.!.!.!.!.!.!.!.!.!.!.!.!.!.!.!.!.!.!.!.!.!.!.!.!.!.!.!.!.!.!.!.!.!.!.!.!.!.!.!.!.!.!.!.!.!.!.!.!.!.!.!.!.!.!.!.",
"!.!.!.!.!.!.!.!.!.!.!.!.!.!.!.!.!.!.!.!.!.!.!.!.!.!.!.!.!.!.!.!.!.!.!.!.!.!.!.!.!.!.!.!.!.!.!.!.!.!.!.!.!.!.!.!.!.!.!.!.!.!.!.!.",
"!.!.!.!.!.!.!.!.!.!.!.!.!.!.!.!.!.!.!.!.!.!.!.!.!.!.!.!.!.!.!.!.!.!.!.!.!.!.!.!.!.!.!.!.!.!.!.!.!.!.!.!.!.!.!.!.!.!.!.!.!.!.!.!.",
"!.!.!.!.!.!.!.!.!.!.!.!.!.!.!.!.!.!.!.!.!.!.!.!.!.!.!.!.!.!.!.!.!.!.!.!.!.!.!.!.!.!.!.!.!.!.!.!.!.!.!.!.!.!.!.!.!.!.!.!.!.!.!.!.",
"!.!.!.!.!.!.!.!.!.!.!.!.!.!.!.!.!.!.!.+ & @ + O !.!.!.!.!.!.!.!.!.!.!.!.!.!.!.!.O + @ & + !.!.!.!.!.!.!.!.!.!.!.!.!.!.!.!.!.!.!.",
"!.!.!.!.!.!.!.!.!.!.!.!.!.!.!.!.!.  : { d.$.~ l O !.!.!.!.              !.!.!.O l ~ =.d.{ :   !.!.!.!.!.!.!.!.!.!.!.!.!.!.!.!.!.",
"!.!.!.!.!.!.!.!.!.!.!.!.!.!.!.!.!.  y b.W.P > 6 a : !.!.  7 a a a a a p O   : a 6 > P W.b.y   !.!.!.!.!.!.!.!.!.!.!.!.!.!.!.!.!.",
"!.!.!.!.!.!.!.!.!.!.!.!.!.!.!.!.!.  V P.e.4   O a 8 : !.> Q o. . . .o./ O + 0 p o   4 r.P.V   !.!.!.!.!.!.!.!.!.!.!.!.!.!.!.!.!.",
"!.!.!.!.!.!.!.!.!.!.!.!.!.!.!.!.!.  V u.* !.!.!.  p w + ^  . . .|  .| / ; j x * !.!.!.* u.V   !.!.!.!.!.!.!.!.!.!.!.!.!.!.!.!.!.",
"!.!.!.!.!.!.!.!.!.!.!.!.  !.!.!.!.!.!.* !.!.!.!.!.O . O ^ | | [ ] ..] ' / ( 4.u.* !.!.!.* !.!.!.!.!.!.  !.!.!.!.!.!.!.!.!.!.!.!.",
"!.!.!.!.!.!.!.!.!.!.!.O e : !.!.!.!.!.!.!.!.!.!.!.  = h '  . .' ] 3.&.7 ( 1.Z.l.* !.!.!.!.!.!.!.!.!.: e O !.!.!.!.!.!.!.!.!.!.!.",
"!.!.!.!.!.!.!.!.!.!.!.@ =.r   !.!.!.!.!.!.!.!.!.!.  t 1...` ` ..>.A.w.@ =.Z.U.t.% !.!.!.!.!.!.!.!.  r =.@ !.!.!.!.!.!.!.!.!.!.!.",
"!.!.!.!.!.!.!.!.!.!.!.* j.G $ !.!.!.!.!.!.!.!.!.!.. Z n.:.O.O.:.V.J.Y 3 s.S.c./ ; !.!.!.!.!.!.!.!.$ G j.* !.!.!.!.!.!.!.!.!.!.!.",
"!.!.!.!.!.!.!.!.!.!.!.* j.P.U   !.!.!.!.!.!.!.    p ) :.M.V.A.S.P.D S y.3 v @.' / :   !.!.!.!.!.  U P.j.* !.!.!.!.!.!.!.!.!.!.!.",
"!.!.!.!.!.!.!.!.!.!.!.* j.Q.l.U & !.!.!.    : a a /  ...1.2.6.4.Z U U M X + : 0 [ ! 7   !.!.!.& U l.E.j.* !.!.!.!.!.!.!.!.!.!.!.",
"!.!.!.!.!.!.!.!.!.!.!.* k.R.R.J.D < !.!.    = k ] o.| | ] W i p m U H -   1 1 . w j 8   !.!.< G J.E.E.j.* !.!.!.!.!.!.!.!.!.!.!.",
"!.!.!.!.!.!.!.!.!.!.!.& d.Y.R.R.P.D $ !.!.    + Q / ^ ^ ^ :   5 k.G u _ 2 i.e.        !.!.$ D Y.R.R.T.d.& !.!.!.!.!.!.!.!.!.!.!.",
"!.!.!.!.!.!.!.!.!.!.!.+ { b.R.R.R.S.U   !.!.!.!.O O O + O   n k.P.x.z.C.z.P.w.    !.!.!.  U S.Y.R.R.b.{ + !.!.!.!.!.!.!.!.!.!.!.",
"!.!.!.!.!.!.!.!.!.!.!.O / v.R.R.R.E.l.U & !.!.!.!.  3 I $ F p.6.6.Z.h.G S.m.b   !.!.!.& U l.E.R.R.R.c./ O !.!.!.!.!.!.!.!.!.!.!.",
"!.!.!.!.!.!.!.!.!.!.!.o p a.R.R.Y.Y.E.S.D < !.!.!.  S B.u H L i i P J t B.*.9   !.!.< D J.E.Y.Y.R.R.a.p o !.!.!.!.!.!.!.!.!.!.!.",
"!.!.!.!.!.!.!.!.!.!.!.!.  Y T.R.R.Y.Y.R.R.D $ !.!.  N f.-.8 # * * # 8 -.f.N   !.!.$ D Y.R.Y.Y.Y.R.T.Y   !.!.!.!.!.!.!.!.!.!.!.!.",
"!.!.!.!.!.!.!.!.!.!.!.!.  g 7.R.R.Y.Y.Y.R.S.U     !.!.3 f.;.%.j.j.%.;.f.3 !.!.    T J.R.R.P.R.Y.Y.5.g   !.!.!.!.!.!.!.!.!.!.!.!.",
"!.!.!.!.!.!.!.!.!.!.!.!.!.- c 7.L.R.E.E.R.E.x.8.f : ; p Z t.F.Q.Q.F.9.Z d - : z 8.x.E.R.E.E.E.K.5.c - !.!.!.!.!.!.!.!.!.!.!.!.!.",
"!.!.!.!.!.!.!.!.!.!.!.!.!.!.- v B.h.R r.P.u.E 8.f 6 a / + A w.E R w.A + / a 6 f 8.E u.P.e.R h.B.v ; !.!.!.!.!.!.!.!.!.!.!.!.!.!.",
"!.!.!.!.!.!.!.!.!.!.!.!.!.!.!.& y.V   * y.D & * + j o.^ o . @ * * @ . + ^ o.j + & & D u.*   V y.& !.!.!.!.!.!.!.!.!.!.!.!.!.!.!.",
"!.!.!.!.!.!.!.!.!.!.!.!.!.!.!.  & !.!.!.* R x.d._ '  .^ O 0 =.j.j.=.0 + ^ | ' _ d.x.T * !.!.!.&   !.!.!.!.!.!.!.!.!.!.!.!.!.!.!.",
"!.!.!.!.!.!.!.!.!.!.!.!.!.!.!.  !.!.!.& U l.Q.G.#.X.Q 6 p / #.2.2.#.^ a 6 Q X.#.G.Q.l.U & !.!.!.  !.!.!.!.!.!.!.!.!.!.!.!.!.!.!.",
"!.!.!.!.!.!.!.!.!.!.!.!.!.!.!.  !.!.!.* l.s.h.B.v s > + ( o.] ` ` ] o.) + > s v B.h.h.l.* !.!.!.  !.!.!.!.!.!.!.!.!.!.!.!.!.!.!.",
"!.!.!.!.!.!.!.!.!.!.!.!.!.!.!.!.!.!.!.* u.B M u.*     + k ' ..O.O...' k o     * u.B B u.* !.!.!.!.!.!.!.!.!.!.!.!.!.!.!.!.!.!.!.",
"!.!.!.!.!.!.!.!.!.!.!.!.!.!.!.!.!.!.!.!.* !.!.* !.!.!.!.+ a ,.B.D.,.h +   !.!.!.* !.!.* !.!.!.!.!.!.!.!.!.!.!.!.!.!.!.!.!.!.!.!.",
"!.!.!.!.!.!.!.!.!.!.!.!.!.!.!.!.!.!.!.!.!.!.!.!.!.!.!.    &.c.5.L.N.a.U $   !.!.!.!.!.!.!.!.!.!.!.!.!.!.!.!.!.!.!.!.!.!.!.!.!.!.",
"!.!.!.!.!.!.!.!.!.!.!.!.!.!.!.!.!.!.!.!.!.!.!.!.!.!.= :   F 0.7.I.Q.x.T $     !.!.!.!.!.!.!.!.!.!.!.!.!.!.!.!.!.!.!.!.!.!.!.!.!.",
"!.!.!.!.!.!.!.!.!.!.!.!.!.!.!.!.!.!.!.!.!.!.!.!.!.. 8 ^ +   M j.k.l.U + O .   !.!.!.!.!.!.!.!.!.!.!.!.!.!.!.!.!.!.!.!.!.!.!.!.!.",
"!.!.!.!.!.!.!.!.!.!.!.!.!.!.!.!.!.!.!.!.!.!.!.!.  w [ ^ O   X * * * q ! / :   !.!.!.!.!.!.!.!.!.!.!.!.!.!.!.!.!.!.!.!.!.!.!.!.!.",
"!.!.!.!.!.!.!.!.!.!.!.!.!.!.!.!.!.!.!.!.!.!.!.!.  a o.[ k =       > W | ..>   !.!.!.!.!.!.!.!.!.!.!.!.!.!.!.!.!.!.!.!.!.!.!.!.!.",
"!.!.!.!.!.!.!.!.!.!.!.!.!.!.!.!.!.!.!.!.!.!.!.!.> Q o.] j =     : Q o. . .>   !.!.!.!.!.!.!.!.!.!.!.!.!.!.!.!.!.!.!.!.!.!.!.!.!.",
"!.!.!.!.!.!.!.!.!.!.!.!.!.!.!.!.!.!.!.!.!.!.!.O ^  .[ k +     O /  . . ./ :   !.!.!.!.!.!.!.!.!.!.!.!.!.!.!.!.!.!.!.!.!.!.!.!.!.",
"!.!.!.!.!.!.!.!.!.!.!.!.!.!.!.!.!.!.!.!.!.!.!.O ! o.j o   !.!.O ^  . ./ ; !.!.!.!.!.!.!.!.!.!.!.!.!.!.!.!.!.!.!.!.!.!.!.!.!.!.!.",
"!.!.!.!.!.!.!.!.!.!.!.!.!.!.!.!.!.!.!.!.!.!.!.!.: : 7 w o   : j [ o.Q > !.!.!.!.!.!.!.!.!.!.!.!.!.!.!.!.!.!.!.!.!.!.!.!.!.!.!.!.",
"!.!.!.!.!.!.!.!.!.!.!.!.!.!.!.!.!.!.!.!.!.!.!.!.V A C w .   >  .' Q 7   !.!.!.!.!.!.!.!.!.!.!.!.!.!.!.!.!.!.!.!.!.!.!.!.!.!.!.!.",
"!.!.!.!.!.!.!.!.!.!.!.!.!.!.!.!.!.!.!.!.!.!.!.& y.x.T       >  .O.,   !.!.!.!.!.!.!.!.!.!.!.!.!.!.!.!.!.!.!.!.!.!.!.!.!.!.!.!.!.",
"!.!.!.!.!.!.!.!.!.!.!.!.!.!.!.!.!.!.!.!.!.!.!.  * * * !.!.  > O.n.V   !.!.!.!.!.!.!.!.!.!.!.!.!.!.!.!.!.!.!.!.!.!.!.!.!.!.!.!.!.",
"!.!.!.!.!.!.!.!.!.!.!.!.!.!.!.!.!.!.!.!.!.!.!.!.!.!.!.!.!.  y b.T.V   !.!.!.!.!.!.!.!.!.!.!.!.!.!.!.!.!.!.!.!.!.!.!.!.!.!.!.!.!.",
"!.!.!.!.!.!.!.!.!.!.!.!.!.!.!.!.!.!.!.!.!.!.!.!.!.!.!.!.!.  V P.r.4 !.!.!.!.!.!.!.!.!.!.!.!.!.!.!.!.!.!.!.!.!.!.!.!.!.!.!.!.!.!.",
"!.!.!.!.!.!.!.!.!.!.!.!.!.!.!.!.!.!.!.!.!.!.!.!.!.!.!.!.!.  n u.* !.!.!.!.!.!.!.!.!.!.!.!.!.!.!.!.!.!.!.!.!.!.!.!.!.!.!.!.!.!.!.",
"!.!.!.!.!.!.!.!.!.!.!.!.!.!.!.!.!.!.!.!.!.!.!.!.!.!.!.!.!.  X * !.!.!.!.!.!.!.!.!.!.!.!.!.!.!.!.!.!.!.!.!.!.!.!.!.!.!.!.!.!.!.!.",
"!.!.!.!.!.!.!.!.!.!.!.!.!.!.!.!.!.!.!.!.!.!.!.!.!.!.!.!.!.!.!.!.!.!.!.!.!.!.!.!.!.!.!.!.!.!.!.!.!.!.!.!.!.!.!.!.!.!.!.!.!.!.!.!.",
"!.!.!.!.!.!.!.!.!.!.!.!.!.!.!.!.!.!.!.!.!.!.!.!.!.!.!.!.!.!.!.!.!.!.!.!.!.!.!.!.!.!.!.!.!.!.!.!.!.!.!.!.!.!.!.!.!.!.!.!.!.!.!.!.",
"!.!.!.!.!.!.!.!.!.!.!.!.!.!.!.!.!.!.!.!.!.!.!.!.!.!.!.!.!.!.!.!.!.!.!.!.!.!.!.!.!.!.!.!.!.!.!.!.!.!.!.!.!.!.!.!.!.!.!.!.!.!.!.!.",
"!.!.!.!.!.!.!.!.!.!.!.!.!.!.!.!.!.!.!.!.!.!.!.!.!.!.!.!.!.!.!.!.!.!.!.!.!.!.!.!.!.!.!.!.!.!.!.!.!.!.!.!.!.!.!.!.!.!.!.!.!.!.!.!.",
"!.!.!.!.!.!.!.!.!.!.!.!.!.!.!.!.!.!.!.!.!.!.!.!.!.!.!.!.!.!.!.!.!.!.!.!.!.!.!.!.!.!.!.!.!.!.!.!.!.!.!.!.!.!.!.!.!.!.!.!.!.!.!.!.",
"!.!.!.!.!.!.!.!.!.!.!.!.!.!.!.!.!.!.!.!.!.!.!.!.!.!.!.!.!.!.!.!.!.!.!.!.!.!.!.!.!.!.!.!.!.!.!.!.!.!.!.!.!.!.!.!.!.!.!.!.!.!.!.!.",
"!.!.!.!.!.!.!.!.!.!.!.!.!.!.!.!.!.!.!.!.!.!.!.!.!.!.!.!.!.!.!.!.!.!.!.!.!.!.!.!.!.!.!.!.!.!.!.!.!.!.!.!.!.!.!.!.!.!.!.!.!.!.!.!.",
"!.!.!.!.!.!.!.!.!.!.!.!.!.!.!.!.!.!.!.!.!.!.!.!.!.!.!.!.!.!.!.!.!.!.!.!.!.!.!.!.!.!.!.!.!.!.!.!.!.!.!.!.!.!.!.!.!.!.!.!.!.!.!.!.",
"!.!.!.!.!.!.!.!.!.!.!.!.!.!.!.!.!.!.!.!.!.!.!.!.!.!.!.!.!.!.!.!.!.!.!.!.!.!.!.!.!.!.!.!.!.!.!.!.!.!.!.!.!.!.!.!.!.!.!.!.!.!.!.!.",
"!.!.!.!.!.!.!.!.!.!.!.!.!.!.!.!.!.!.!.!.!.!.!.!.!.!.!.!.!.!.!.!.!.!.!.!.!.!.!.!.!.!.!.!.!.!.!.!.!.!.!.!.!.!.!.!.!.!.!.!.!.!.!.!.",
"!.!.!.!.!.!.!.!.!.!.!.!.!.!.!.!.!.!.!.!.!.!.!.!.!.!.!.!.!.!.!.!.!.!.!.!.!.!.!.!.!.!.!.!.!.!.!.!.!.!.!.!.!.!.!.!.!.!.!.!.!.!.!.!."
};
