/* XPM */
static char *green_vampire[] = {
/* columns rows colors chars-per-pixel */
"48 48 4 1 ",
"  c black",
". c #10A840",
"X c #F8D088",
"o c None",
/* pixels */
"oooooooooooooooooooooooooooooooooooooooooooooooo",
"oooooooooooooooooooooooooooooooooooooooooooooooo",
"oooooooooooooooooooooooooooooooooooooooooooooooo",
"oooooooooooooooooooooooooooooooooooooooooooooooo",
"oooooooooooooooooooooooooooooooooooooooooooooooo",
"oooooooooooooooooooooooooooooooooooooooooooooooo",
"oooooooooooooooooooooooooooooooooooooooooooooooo",
"oooooooooooooooooooooooooooooooooooooooooooooooo",
"oooooooooooooo    oooooooooooo    oooooooooooooo",
"ooooooooooooo .X.. ooo     oo ..X. ooooooooooooo",
"ooooooooooooo XX  . o .....  .  XX ooooooooooooo",
"ooooooooooooo X oo . ...... . oo X ooooooooooooo",
"ooooooooo oooo oooo  ........X oo oooo ooooooooo",
"oooooooo . oooooooo .....X .XX oooooo . oooooooo",
"oooooooo X oooooooo X...XX XX. oooooo X oooooooo",
"oooooooo XX ooooo  ..XXXX X ... oooo XX oooooooo",
"oooooooo XXX oo  ....... X    .. oo XXX oooooooo",
"oooooooo XXXX oo  ....  X . X   oo XXXX oooooooo",
"oooooooo .XXXX ooo     XXXXXX  oo XXXX. oooooooo",
"oooooooo .XXXXX ooo X X..X X. oo XXXXX. oooooooo",
"ooooooooo XXXXXX oo X.    .X oo XXXXXX ooooooooo",
"ooooooooo .XXXXXX  o X.XX.X o  XXXXXX. ooooooooo",
"oooooooooo .XXXXXX. . XXXX . .XXXXXX. oooooooooo",
"ooooooooooo X  X   ..      ..   X  X ooooooooooo",
"ooooooooooo  oo XX... .XX. ...XX oo  ooooooooooo",
"ooooooooooo oo XXX.. ...... ..XXX oo ooooooooooo",
"oooooooooooooo X X   ......   X X oooooooooooooo",
"ooooooooooooooo o ooo .XX.  oo o ooooooooooooooo",
"oooooooooooooooooooo  X.XXX  ooooooooooooooooooo",
"ooooooooooooooooooo .  XXX   ooooooooooooooooooo",
"oooooooooooooooooo ..     .. ooooooooooooooooooo",
"oooooooooooooooooo ...   ... ooooooooooooooooooo",
"ooooooooooooooooo ...   .... ooooooooooooooooooo",
"ooooooooooooooooo ..  o ... oooooooooooooooooooo",
"oooooooooooooooooo  .  ... ooooooooooooooooooooo",
"ooooooooooooooooo XX   .. oooooooooooooooooooooo",
"ooooooooooooooooo   oo .X oooooooooooooooooooooo",
"oooooooooooooooooooooo XX oooooooooooooooooooooo",
"oooooooooooooooooooooo X ooooooooooooooooooooooo",
"oooooooooooooooooooooo  oooooooooooooooooooooooo",
"oooooooooooooooooooooooooooooooooooooooooooooooo",
"oooooooooooooooooooooooooooooooooooooooooooooooo",
"oooooooooooooooooooooooooooooooooooooooooooooooo",
"oooooooooooooooooooooooooooooooooooooooooooooooo",
"oooooooooooooooooooooooooooooooooooooooooooooooo",
"oooooooooooooooooooooooooooooooooooooooooooooooo",
"oooooooooooooooooooooooooooooooooooooooooooooooo",
"oooooooooooooooooooooooooooooooooooooooooooooooo"
};
